<svg xmlns="http://www.w3.org/2000/svg" data-name="Layer 1" viewBox="0 0 16 20" x="0px" y="0px"><path d="M14.46855,8.65833V1.2998c0-.01447-.007-.02661-.00824-.04077A.4556.4556,0,0,0,14.4207.98877a.471.471,0,0,0-.63086-.2041,7.35362,7.35362,0,0,1-6.82324.3877,7.43332,7.43332,0,0,0-4.498-.47314V.5A.46875.46875,0,0,0,1.531.5v15a.46875.46875,0,0,0,.9375,0V9.17108a6.36449,6.36449,0,0,1,4.19531.38849,9.9931,9.9931,0,0,0,3.36523.70312,9.09431,9.09431,0,0,0,4.18848-1.14355.451.451,0,0,0,.08905-.07092c.0094-.00824.02032-.0141.029-.02313a.45565.45565,0,0,0,.08508-.12616c.00366-.00775.00891-.014.01215-.022a.45942.45942,0,0,0,.03278-.16223l.00293-.01453V8.69025C14.46824,8.67944,14.46959,8.66919,14.46855,8.65833Zm-7.502.01355a7.44034,7.44034,0,0,0-4.498-.4726V1.6712a6.34927,6.34927,0,0,1,4.19531.38837,10.005,10.005,0,0,0,3.36523.70313,8.678,8.678,0,0,0,3.502-.83344V8.40167A7.32455,7.32455,0,0,1,6.9666,8.67188Z"/></svg>
