<svg xmlns="http://www.w3.org/2000/svg" data-name="Layer 2" fill="#FFFFFF" viewBox="0 0 100 125" x="0px" y="0px"><path d="M75.9,36.41H75.37v-6H75.25a2,2,0,0,0,.08-0.54,25.42,25.42,0,0,0-50.83,0v6.53H24.1a6,6,0,0,0-6,6V85.94a6,6,0,0,0,6,6H75.9a6,6,0,0,0,6-6V42.41A6,6,0,0,0,75.9,36.41ZM28.5,29.88a21.42,21.42,0,0,1,42.83,0,2,2,0,0,0,.08.54h0v6H28.5V29.88ZM77.9,85.94a2,2,0,0,1-2,2H24.1a2,2,0,0,1-2-2V83.49H77.9v2.45Zm0-6.45H22.1V42.41a2,2,0,0,1,2-2H75.9a2,2,0,0,1,2,2V79.49Z"/><path d="M50,54.06a8.18,8.18,0,1,0,8.18,8.18A8.19,8.19,0,0,0,50,54.06Zm0,12.37a4.18,4.18,0,1,1,4.18-4.18A4.19,4.19,0,0,1,50,66.42Z"/>></svg>
