<svg xmlns:dc="http://purl.org/dc/elements/1.1/" xmlns:cc="http://creativecommons.org/ns#" xmlns:rdf="http://www.w3.org/1999/02/22-rdf-syntax-ns#" xmlns:svg="http://www.w3.org/2000/svg" xmlns="http://www.w3.org/2000/svg" xmlns:sodipodi="http://sodipodi.sourceforge.net/DTD/sodipodi-0.dtd" xmlns:inkscape="http://www.inkscape.org/namespaces/inkscape" version="1.1" x="0px" y="0px" viewBox="0 0 100 125"><g transform="translate(0,-952.36218)"><path style="text-indent:0;text-transform:none;direction:ltr;block-progression:tb;baseline-shift:baseline;color:#000000;enable-background:accumulate;" d="m 72,957.36217 c -8.2487,0 -15,6.75126 -15,15 0,1.45722 0.2326,2.85272 0.625,4.1875 l -20.3438,14.0625 c -2.5586,-2.02722 -5.7835,-3.25 -9.2812,-3.25 -8.2487,0 -15,6.75126 -15,15.00003 0,8.2487 6.7513,15 15,15 3.5133,0 6.7484,-1.2378 9.3125,-3.2813 l 20.3125,14.0625 c -0.3979,1.3433 -0.625,2.7511 -0.625,4.2188 0,8.2487 6.7513,15 15,15 8.2487,0 15,-6.7513 15,-15 0,-8.2488 -6.7513,-15 -15,-15 -4.6399,0 -8.8053,2.1315 -11.5625,5.4687 l -19.2187,-13.375 c 1.1459,-2.1162 1.7812,-4.5308 1.7812,-7.0937 0,-2.56776 -0.6626,-4.97474 -1.8125,-7.09378 7.0261,-4.4748 12.169,-8.92853 19.25,-13.375 2.7572,3.33722 6.9226,5.46875 11.5625,5.46875 8.2487,0 15,-6.75126 15,-15 0,-8.24874 -6.7513,-15 -15,-15 z m 0,6 c 5.0061,0 9,3.9939 9,9 0,5.0061 -3.9939,9 -9,9 -5.0061,0 -9,-3.9939 -9,-9 0,-5.0061 3.9939,-9 9,-9 z m -44,30 c 5.0061,0 9,3.9939 9,9.00003 0,5.0061 -3.9939,9 -9,9 -5.0061,0 -9,-3.9939 -9,-9 0,-5.00613 3.9939,-9.00003 9,-9.00003 z m 44,30.00003 c 5.0061,0 9,3.9939 9,9 0,5.0061 -3.9939,9 -9,9 -5.0061,0 -9,-3.9939 -9,-9 0,-5.0061 3.9939,-9 9,-9 z" fill="#000000" fill-opacity="1" stroke="none" marker="none" visibility="visible" display="inline" overflow="visible"/></g></svg>
