<svg xmlns:dc="http://purl.org/dc/elements/1.1/" xmlns:cc="http://creativecommons.org/ns#" xmlns:rdf="http://www.w3.org/1999/02/22-rdf-syntax-ns#" xmlns:svg="http://www.w3.org/2000/svg" xmlns="http://www.w3.org/2000/svg" xmlns:sodipodi="http://sodipodi.sourceforge.net/DTD/sodipodi-0.dtd" xmlns:inkscape="http://www.inkscape.org/namespaces/inkscape" version="1.1" x="0px" y="0px" viewBox="0 0 100 125"><g transform="translate(0,-952.36218)"><path style="text-indent:0;text-transform:none;direction:ltr;block-progression:tb;baseline-shift:baseline;color:#000000;enable-background:accumulate;" d="m 76.5469,1044.3588 a 0.99882382,1.0013778 0 0 0 1.0204,-1.1175 l -3.3439,-28.6608 19.5138,-21.232 a 0.99882382,1.0013778 0 0 0 -0.5338,-1.65259 L 64.9768,986.01411 50.8634,960.8631 a 0.99882382,1.0013778 0 0 0 -1.7268,0 l -14.1134,25.15101 -28.2266,5.6818 a 0.99882382,1.0013778 0 0 0 -0.5338,1.65259 l 19.5138,21.232 -3.3439,28.6608 a 0.99882382,1.0013778 0 0 0 1.4129,1.0231 L 50,1032.224 l 26.1544,12.0404 a 0.99882382,1.0013778 0 0 0 0.3925,0.094 z m -1.1618,-2.6599 -24.9612,-11.4895 a 0.99882382,1.0013778 0 0 0 -0.8478,0 l -24.9613,11.4895 3.1869,-27.3545 a 0.99882382,1.0013778 0 0 0 -0.2512,-0.7869 L 8.9316,993.3013 35.871,987.88706 a 0.99882382,1.0013778 0 0 0 0.675,-0.48791 L 50,963.38135 l 13.454,24.0178 a 0.99882382,1.0013778 0 0 0 0.675,0.48791 l 26.9394,5.41424 -18.619,20.2562 a 0.99882382,1.0013778 0 0 0 -0.2511,0.7869 l 3.1868,27.3545 z" fill="#000000" fill-opacity="1" stroke="none" marker="none" visibility="visible" display="inline" overflow="visible"/></g></svg>
