<svg xmlns:dc="http://purl.org/dc/elements/1.1/" xmlns:cc="http://creativecommons.org/ns#" xmlns:rdf="http://www.w3.org/1999/02/22-rdf-syntax-ns#" xmlns:svg="http://www.w3.org/2000/svg" xmlns="http://www.w3.org/2000/svg" xmlns:sodipodi="http://sodipodi.sourceforge.net/DTD/sodipodi-0.dtd" xmlns:inkscape="http://www.inkscape.org/namespaces/inkscape" version="1.1" x="0px" y="0px" viewBox="0 0 100 125"><g transform="translate(0,-952.36218)"><path style="text-indent:0;text-transform:none;direction:ltr;block-progression:tb;baseline-shift:baseline;color:#000000;enable-background:accumulate;" d="m 42.003912,964.36624 c -16.5448,0 -30,13.45512 -30,30 0,16.54466 13.4552,29.99996 30,29.99996 7.5515,0 14.4401,-2.817 19.7188,-7.4375 l 22.875,22.8437 c 0.7811,0.7808 2.0314,0.781 2.8124,0 0.7812,-0.7811 0.7814,-2.0317 0,-2.8125 l -22.8437,-22.8437 c 4.6296,-5.2808 7.4375,-12.1902 7.4375,-19.74996 0,-16.54489 -13.4553,-30 -30,-30 z m 0,4 c 14.3829,0 26,11.61689 26,26 0,14.38286 -11.6171,25.99996 -26,25.99996 -14.383,0 -26,-11.6171 -26,-25.99996 0,-14.38312 11.617,-26 26,-26 z" fill="#000000" fill-opacity="1" stroke="none" marker="none" visibility="visible" display="inline" overflow="visible"/></g></svg>
